<svg id="SvgjsSvg1129" width="517.0028381347656" height="424" xmlns="http://www.w3.org/2000/svg" version="1.1" xmlns:xlink="http://www.w3.org/1999/xlink" xmlns:svgjs="http://svgjs.com/svgjs"><defs id="SvgjsDefs1130"><marker id="SvgjsMarker1196" markerWidth="16" markerHeight="12" refX="16" refY="6" viewBox="0 0 16 12" orient="auto" markerUnits="userSpaceOnUse" stroke-dasharray="0,0"><path id="SvgjsPath1197" d="M0,2 L14,6 L0,11 L0,2" fill="#8a8a8a" stroke="#8a8a8a" stroke-width="2"></path></marker><marker id="SvgjsMarker1200" markerWidth="16" markerHeight="12" refX="16" refY="6" viewBox="0 0 16 12" orient="auto" markerUnits="userSpaceOnUse" stroke-dasharray="0,0"><path id="SvgjsPath1201" d="M0,2 L14,6 L0,11 L0,2" fill="#8a8a8a" stroke="#8a8a8a" stroke-width="2"></path></marker><marker id="SvgjsMarker1204" markerWidth="16" markerHeight="12" refX="0" refY="6" viewBox="0 0 16 12" orient="auto" markerUnits="userSpaceOnUse" stroke-dasharray="0,0"><path id="SvgjsPath1205" d="M15,1.5 L2,6 L15,10.5" fill="#8a8a8a" stroke="#8a8a8a" stroke-width="2"></path></marker><marker id="SvgjsMarker1206" markerWidth="16" markerHeight="12" refX="16" refY="6" viewBox="0 0 16 12" orient="auto" markerUnits="userSpaceOnUse" stroke-dasharray="0,0"><path id="SvgjsPath1207" d="M0,2 L14,6 L0,11 L0,2" fill="#8a8a8a" stroke="#8a8a8a" stroke-width="2"></path></marker><marker id="SvgjsMarker1210" markerWidth="16" markerHeight="12" refX="16" refY="6" viewBox="0 0 16 12" orient="auto" markerUnits="userSpaceOnUse" stroke-dasharray="0,0"><path id="SvgjsPath1211" d="M0,2 L14,6 L0,11 L0,2" fill="#8a8a8a" stroke="#8a8a8a" stroke-width="2"></path></marker><marker id="SvgjsMarker1214" markerWidth="16" markerHeight="12" refX="16" refY="6" viewBox="0 0 16 12" orient="auto" markerUnits="userSpaceOnUse" stroke-dasharray="0,0"><path id="SvgjsPath1215" d="M0,2 L14,6 L0,11 L0,2" fill="#8a8a8a" stroke="#8a8a8a" stroke-width="2"></path></marker><marker id="SvgjsMarker1218" markerWidth="16" markerHeight="12" refX="16" refY="6" viewBox="0 0 16 12" orient="auto" markerUnits="userSpaceOnUse" stroke-dasharray="0,0"><path id="SvgjsPath1219" d="M0,2 L14,6 L0,11 L0,2" fill="#8a8a8a" stroke="#8a8a8a" stroke-width="2"></path></marker><marker id="SvgjsMarker1222" markerWidth="16" markerHeight="12" refX="0" refY="6" viewBox="0 0 16 12" orient="auto" markerUnits="userSpaceOnUse" stroke-dasharray="0,0"><path id="SvgjsPath1223" d="M15,1.5 L2,6 L15,10.5" fill="#8a8a8a" stroke="#8a8a8a" stroke-width="2"></path></marker><marker id="SvgjsMarker1224" markerWidth="16" markerHeight="12" refX="16" refY="6" viewBox="0 0 16 12" orient="auto" markerUnits="userSpaceOnUse" stroke-dasharray="0,0"><path id="SvgjsPath1225" d="M0,2 L14,6 L0,11 L0,2" fill="#8a8a8a" stroke="#8a8a8a" stroke-width="2"></path></marker><marker id="SvgjsMarker1228" markerWidth="16" markerHeight="12" refX="16" refY="6" viewBox="0 0 16 12" orient="auto" markerUnits="userSpaceOnUse" stroke-dasharray="0,0"><path id="SvgjsPath1229" d="M0,2 L14,6 L0,11 L0,2" fill="#8a8a8a" stroke="#8a8a8a" stroke-width="2"></path></marker><marker id="SvgjsMarker1234" markerWidth="16" markerHeight="12" refX="16" refY="6" viewBox="0 0 16 12" orient="auto" markerUnits="userSpaceOnUse" stroke-dasharray="0,0"><path id="SvgjsPath1235" d="M0,2 L14,6 L0,11 L0,2" fill="#8a8a8a" stroke="#8a8a8a" stroke-width="2"></path></marker><marker id="SvgjsMarker1238" markerWidth="16" markerHeight="12" refX="16" refY="6" viewBox="0 0 16 12" orient="auto" markerUnits="userSpaceOnUse" stroke-dasharray="0,0"><path id="SvgjsPath1239" d="M0,2 L14,6 L0,11 L0,2" fill="#8a8a8a" stroke="#8a8a8a" stroke-width="2"></path></marker></defs><rect id="SvgjsRect1131" width="517.0028381347656" height="424" fill="#2f2f2f"></rect><g id="SvgjsG1132" transform="translate(107.01138305664062,90.00569152832031)"><path id="SvgjsPath1133" d="M 46.199999999999996 216.29999999999998C -38.5 154.5 15.4 108.14999999999999 34.65 92.7C 26.950000000000003 15.450000000000001 123.2 0 161.7 30.900000000000002C 192.5 -15.450000000000001 288.75 0 288.75 46.35C 365.75 30.900000000000002 396.55 92.7 365.75 169.95000000000002C 392.7 231.75 365.75 309 277.2 278.1C 257.95 318.27 180.95 318.27 161.7 278.1C 123.2 309 46.199999999999996 293.55 46.199999999999996 216.29999999999998Z" stroke="rgba(138,138,138,1)" stroke-width="2" fill="none"></path><g id="SvgjsG1134"><text id="SvgjsText1135" font-family="微软雅黑" text-anchor="middle" font-size="13px" width="365px" fill="#323232" font-weight="400" align="middle" anchor="middle" family="微软雅黑" size="13px" weight="400" font-style="" opacity="1" y="145.05" transform="rotate(0)"></text></g></g><g id="SvgjsG1136" transform="translate(25.011383056640625,25.005691528320312)"><path id="SvgjsPath1137" d="M 0 0L 170 0L 170 121L 0 121Z" stroke="rgba(138,138,138,1)" stroke-width="2" fill-opacity="1" fill="#2f2f2f"></path><g id="SvgjsG1138"><text id="SvgjsText1139" font-family="Arial" text-anchor="start" font-size="13px" width="150px" fill="#ffffff" font-weight="400" align="middle" anchor="start" family="Arial" size="13px" weight="400" font-style="" opacity="1" y="12.05" transform="rotate(0)"><tspan id="SvgjsTspan1140" dy="16" x="10"><tspan id="SvgjsTspan1141" style="text-decoration:;"> </tspan></tspan><tspan id="SvgjsTspan1142" dy="16" x="10"><tspan id="SvgjsTspan1143" style="text-decoration:;">previous_state: 1</tspan></tspan><tspan id="SvgjsTspan1144" dy="16" x="10"><tspan id="SvgjsTspan1145" style="text-decoration:;">next_state: 2</tspan></tspan><tspan id="SvgjsTspan1146" dy="16" x="10"><tspan id="SvgjsTspan1147" style="text-decoration:;">action: 0</tspan></tspan><tspan id="SvgjsTspan1148" dy="16" x="10"><tspan id="SvgjsTspan1149" style="text-decoration:;">reward: 1.5</tspan></tspan><tspan id="SvgjsTspan1150" dy="16" x="10"><tspan id="SvgjsTspan1151" style="text-decoration:;">next_is_terminal: False</tspan></tspan></text></g></g><g id="SvgjsG1152" transform="translate(132.01138305664062,251.0056915283203)"><path id="SvgjsPath1153" d="M 0 15C 0 -5 30 -5 30 15C 30 35 0 35 0 15Z" stroke="rgba(255,255,255,1)" stroke-width="2" fill-opacity="1" fill="#99ccff"></path><g id="SvgjsG1154"><text id="SvgjsText1155" font-family="Arial" text-anchor="middle" font-size="13px" width="10px" fill="#323232" font-weight="700" align="middle" anchor="middle" family="Arial" size="13px" weight="700" font-style="" opacity="1" y="5.55" transform="rotate(0)"><tspan id="SvgjsTspan1156" dy="16" x="15"><tspan id="SvgjsTspan1157" style="text-decoration:;">1</tspan></tspan></text></g></g><g id="SvgjsG1158" transform="translate(195.01138305664062,166.0056915283203)"><path id="SvgjsPath1159" d="M 0 15C 0 -5 30 -5 30 15C 30 35 0 35 0 15Z" stroke="rgba(255,255,255,1)" stroke-width="2" fill-opacity="1" fill="#66cc00"></path><g id="SvgjsG1160"><text id="SvgjsText1161" font-family="Arial" text-anchor="middle" font-size="13px" width="10px" fill="#323232" font-weight="700" align="middle" anchor="middle" family="Arial" size="13px" weight="700" font-style="" opacity="1" y="5.55" transform="rotate(0)"><tspan id="SvgjsTspan1162" dy="16" x="15"><tspan id="SvgjsTspan1163" style="text-decoration:;">2</tspan></tspan></text></g></g><g id="SvgjsG1164" transform="translate(320.0113830566406,326.0056915283203)"><path id="SvgjsPath1165" d="M 0 15C 0 -5 30 -5 30 15C 30 35 0 35 0 15Z" stroke="rgba(255,255,255,1)" stroke-width="2" fill-opacity="1" fill="#ff0000"></path><g id="SvgjsG1166"><text id="SvgjsText1167" font-family="Arial" text-anchor="middle" font-size="13px" width="10px" fill="#323232" font-weight="700" align="middle" anchor="middle" family="Arial" size="13px" weight="700" font-style="" opacity="1" y="5.55" transform="rotate(0)"><tspan id="SvgjsTspan1168" dy="16" x="15"><tspan id="SvgjsTspan1169" style="text-decoration:;">5</tspan></tspan></text></g></g><g id="SvgjsG1170" transform="translate(320.0113830566406,113.00569152832031)"><path id="SvgjsPath1171" d="M 0 15C 0 -5 30 -5 30 15C 30 35 0 35 0 15Z" stroke="rgba(255,255,255,1)" stroke-width="2" fill-opacity="1" fill="#66cc00"></path><g id="SvgjsG1172"><text id="SvgjsText1173" font-family="Arial" text-anchor="middle" font-size="13px" width="10px" fill="#323232" font-weight="700" align="middle" anchor="middle" family="Arial" size="13px" weight="700" font-style="" opacity="1" y="5.55" transform="rotate(0)"><tspan id="SvgjsTspan1174" dy="16" x="15"><tspan id="SvgjsTspan1175" style="text-decoration:;">3</tspan></tspan></text></g></g><g id="SvgjsG1176" transform="translate(320.0113830566406,247.0056915283203)"><path id="SvgjsPath1177" d="M 0 15C 0 -5 30 -5 30 15C 30 35 0 35 0 15Z" stroke="rgba(255,255,255,1)" stroke-width="2" fill-opacity="1" fill="#66cc00"></path><g id="SvgjsG1178"><text id="SvgjsText1179" font-family="Arial" text-anchor="middle" font-size="13px" width="10px" fill="#323232" font-weight="700" align="middle" anchor="middle" family="Arial" size="13px" weight="700" font-style="" opacity="1" y="5.55" transform="rotate(0)"><tspan id="SvgjsTspan1180" dy="16" x="15"><tspan id="SvgjsTspan1181" style="text-decoration:;">4</tspan></tspan></text></g></g><g id="SvgjsG1182" transform="translate(434.0113830566406,166.0056915283203)"><path id="SvgjsPath1183" d="M 0 15C 0 -5 30 -5 30 15C 30 35 0 35 0 15Z" stroke="rgba(255,255,255,1)" stroke-width="2" fill-opacity="1" fill="#66cc00"></path><g id="SvgjsG1184"><text id="SvgjsText1185" font-family="Arial" text-anchor="middle" font-size="13px" width="10px" fill="#323232" font-weight="700" align="middle" anchor="middle" family="Arial" size="13px" weight="700" font-style="" opacity="1" y="5.55" transform="rotate(0)"><tspan id="SvgjsTspan1186" dy="16" x="15"><tspan id="SvgjsTspan1187" style="text-decoration:;">6</tspan></tspan></text></g></g><g id="SvgjsG1188" transform="translate(434.0113830566406,247.0056915283203)"><path id="SvgjsPath1189" d="M 0 15C 0 -5 30 -5 30 15C 30 35 0 35 0 15Z" stroke="rgba(255,255,255,1)" stroke-width="2" fill-opacity="1" fill="#66cc00"></path><g id="SvgjsG1190"><text id="SvgjsText1191" font-family="Arial" text-anchor="middle" font-size="13px" width="10px" fill="#323232" font-weight="700" align="middle" anchor="middle" family="Arial" size="13px" weight="700" font-style="" opacity="1" y="5.55" transform="rotate(0)"><tspan id="SvgjsTspan1192" dy="16" x="15"><tspan id="SvgjsTspan1193" style="text-decoration:;">7</tspan></tspan></text></g></g><g id="SvgjsG1194"><path id="SvgjsPath1195" d="M162.01138305664062 266.0056915283203L195.01138305664062 181.0056915283203" stroke="#8a8a8a" stroke-width="2" fill="none" marker-end="url(#SvgjsMarker1196)"></path></g><g id="SvgjsG1198"><path id="SvgjsPath1199" d="M225.01138305664062 181.0056915283203L320.0113830566406 128.0056915283203" stroke="#8a8a8a" stroke-width="2" fill="none" marker-end="url(#SvgjsMarker1200)"></path></g><g id="SvgjsG1202"><path id="SvgjsPath1203" d="M335.0113830566406 143.0056915283203L335.0113830566406 247.0056915283203" stroke="#8a8a8a" stroke-width="2" fill="none" marker-start="url(#SvgjsMarker1204)" marker-end="url(#SvgjsMarker1206)"></path></g><g id="SvgjsG1208"><path id="SvgjsPath1209" d="M350.0113830566406 262.0056915283203L434.0113830566406 181.0056915283203" stroke="#8a8a8a" stroke-width="2" fill="none" marker-end="url(#SvgjsMarker1210)"></path></g><g id="SvgjsG1212"><path id="SvgjsPath1213" d="M320.0113830566406 262.0056915283203L210.01138305664062 196.0056915283203" stroke="#8a8a8a" stroke-width="2" fill="none" marker-end="url(#SvgjsMarker1214)"></path></g><g id="SvgjsG1216"><path id="SvgjsPath1217" d="M449.0113830566406 196.0056915283203L449.0113830566406 247.0056915283203" stroke="#8a8a8a" stroke-width="2" fill="none" marker-end="url(#SvgjsMarker1218)"></path></g><g id="SvgjsG1220"><path id="SvgjsPath1221" d="M434.0113830566406 262.0056915283203L350.0113830566406 262.0056915283203" stroke="#8a8a8a" stroke-width="2" fill="none" marker-start="url(#SvgjsMarker1222)" marker-end="url(#SvgjsMarker1224)"></path></g><g id="SvgjsG1226"><path id="SvgjsPath1227" d="M449.0113830566406 166.0056915283203L350.0113830566406 128.0056915283203" stroke="#8a8a8a" stroke-width="2" fill="none" marker-end="url(#SvgjsMarker1228)"></path></g><g id="SvgjsG1230"><path id="SvgjsPath1231" d="M116.51138305664062 147.0056915283203L179.01138305664062 221.0056915283203" stroke-dasharray="3,3" stroke="#8a8a8a" stroke-width="2" fill="none"></path></g><g id="SvgjsG1232"><path id="SvgjsPath1233" d="M162.01138305664062 266.0056915283203L320.0113830566406 262.0056915283203" stroke="#8a8a8a" stroke-width="2" fill="none" marker-end="url(#SvgjsMarker1234)"></path></g><g id="SvgjsG1236"><path id="SvgjsPath1237" d="M335.0113830566406 277.0056915283203L335.0113830566406 326.0056915283203" stroke="#8a8a8a" stroke-width="2" fill="none" marker-end="url(#SvgjsMarker1238)"></path></g><g id="SvgjsG1240" transform="translate(25.011383056640625,25.005691528320312)"><path id="SvgjsPath1241" d="M 0 0L 170 0L 170 24L 0 24Z" stroke="rgba(138,138,138,1)" stroke-width="2" fill="none"></path><g id="SvgjsG1242"><text id="SvgjsText1243" font-family="Arial" text-anchor="middle" font-size="14px" width="150px" fill="#ffffff" font-weight="700" align="middle" anchor="middle" family="Arial" size="14px" weight="700" font-style="" opacity="1" y="1.4" transform="rotate(0)"><tspan id="SvgjsTspan1244" dy="17" x="85"><tspan id="SvgjsTspan1245" style="text-decoration:;">Transition (1-&gt;2)</tspan></tspan></text></g></g><g id="SvgjsG1246" transform="translate(147.01138305664062,294.0056915283203)"><path id="SvgjsPath1247" d="M 0 0L 189 0L 189 52L 0 52Z" stroke="none" fill="none"></path><g id="SvgjsG1248"><text id="SvgjsText1249" font-family="Arial" text-anchor="middle" font-size="15px" width="189px" fill="#ffffff" font-weight="400" align="middle" anchor="middle" family="Arial" size="15px" weight="400" font-style="" opacity="1" y="14.75" transform="rotate(0)"><tspan id="SvgjsTspan1250" dy="18" x="94.5"><tspan id="SvgjsTspan1251" style="text-decoration:;">State space</tspan></tspan></text></g></g></svg>