<svg id="SvgjsSvg1006" width="518.0113525390625" height="424" xmlns="http://www.w3.org/2000/svg" version="1.1" xmlns:xlink="http://www.w3.org/1999/xlink" xmlns:svgjs="http://svgjs.com/svgjs"><defs id="SvgjsDefs1007"><marker id="SvgjsMarker1072" markerWidth="16" markerHeight="12" refX="16" refY="6" viewBox="0 0 16 12" orient="auto" markerUnits="userSpaceOnUse" stroke-dasharray="0,0"><path id="SvgjsPath1073" d="M0,2 L14,6 L0,11 L0,2" fill="#323232" stroke="#323232" stroke-width="2"></path></marker><marker id="SvgjsMarker1076" markerWidth="16" markerHeight="12" refX="16" refY="6" viewBox="0 0 16 12" orient="auto" markerUnits="userSpaceOnUse" stroke-dasharray="0,0"><path id="SvgjsPath1077" d="M0,2 L14,6 L0,11 L0,2" fill="#323232" stroke="#323232" stroke-width="2"></path></marker><marker id="SvgjsMarker1080" markerWidth="16" markerHeight="12" refX="0" refY="6" viewBox="0 0 16 12" orient="auto" markerUnits="userSpaceOnUse" stroke-dasharray="0,0"><path id="SvgjsPath1081" d="M15,1.5 L2,6 L15,10.5" fill="#323232" stroke="#323232" stroke-width="2"></path></marker><marker id="SvgjsMarker1082" markerWidth="16" markerHeight="12" refX="16" refY="6" viewBox="0 0 16 12" orient="auto" markerUnits="userSpaceOnUse" stroke-dasharray="0,0"><path id="SvgjsPath1083" d="M0,2 L14,6 L0,11 L0,2" fill="#323232" stroke="#323232" stroke-width="2"></path></marker><marker id="SvgjsMarker1086" markerWidth="16" markerHeight="12" refX="16" refY="6" viewBox="0 0 16 12" orient="auto" markerUnits="userSpaceOnUse" stroke-dasharray="0,0"><path id="SvgjsPath1087" d="M0,2 L14,6 L0,11 L0,2" fill="#323232" stroke="#323232" stroke-width="2"></path></marker><marker id="SvgjsMarker1090" markerWidth="16" markerHeight="12" refX="16" refY="6" viewBox="0 0 16 12" orient="auto" markerUnits="userSpaceOnUse" stroke-dasharray="0,0"><path id="SvgjsPath1091" d="M0,2 L14,6 L0,11 L0,2" fill="#323232" stroke="#323232" stroke-width="2"></path></marker><marker id="SvgjsMarker1094" markerWidth="16" markerHeight="12" refX="16" refY="6" viewBox="0 0 16 12" orient="auto" markerUnits="userSpaceOnUse" stroke-dasharray="0,0"><path id="SvgjsPath1095" d="M0,2 L14,6 L0,11 L0,2" fill="#323232" stroke="#323232" stroke-width="2"></path></marker><marker id="SvgjsMarker1098" markerWidth="16" markerHeight="12" refX="0" refY="6" viewBox="0 0 16 12" orient="auto" markerUnits="userSpaceOnUse" stroke-dasharray="0,0"><path id="SvgjsPath1099" d="M15,1.5 L2,6 L15,10.5" fill="#323232" stroke="#323232" stroke-width="2"></path></marker><marker id="SvgjsMarker1100" markerWidth="16" markerHeight="12" refX="16" refY="6" viewBox="0 0 16 12" orient="auto" markerUnits="userSpaceOnUse" stroke-dasharray="0,0"><path id="SvgjsPath1101" d="M0,2 L14,6 L0,11 L0,2" fill="#323232" stroke="#323232" stroke-width="2"></path></marker><marker id="SvgjsMarker1104" markerWidth="16" markerHeight="12" refX="16" refY="6" viewBox="0 0 16 12" orient="auto" markerUnits="userSpaceOnUse" stroke-dasharray="0,0"><path id="SvgjsPath1105" d="M0,2 L14,6 L0,11 L0,2" fill="#323232" stroke="#323232" stroke-width="2"></path></marker><marker id="SvgjsMarker1110" markerWidth="16" markerHeight="12" refX="16" refY="6" viewBox="0 0 16 12" orient="auto" markerUnits="userSpaceOnUse" stroke-dasharray="0,0"><path id="SvgjsPath1111" d="M0,2 L14,6 L0,11 L0,2" fill="#323232" stroke="#323232" stroke-width="2"></path></marker><marker id="SvgjsMarker1114" markerWidth="16" markerHeight="12" refX="16" refY="6" viewBox="0 0 16 12" orient="auto" markerUnits="userSpaceOnUse" stroke-dasharray="0,0"><path id="SvgjsPath1115" d="M0,2 L14,6 L0,11 L0,2" fill="#323232" stroke="#323232" stroke-width="2"></path></marker></defs><g id="SvgjsG1008" transform="translate(108.01138305664062,90.00569152832031)"><path id="SvgjsPath1009" d="M 46.199999999999996 216.29999999999998C -38.5 154.5 15.4 108.14999999999999 34.65 92.7C 26.950000000000003 15.450000000000001 123.2 0 161.7 30.900000000000002C 192.5 -15.450000000000001 288.75 0 288.75 46.35C 365.75 30.900000000000002 396.55 92.7 365.75 169.95000000000002C 392.7 231.75 365.75 309 277.2 278.1C 257.95 318.27 180.95 318.27 161.7 278.1C 123.2 309 46.199999999999996 293.55 46.199999999999996 216.29999999999998Z" stroke="rgba(50,50,50,1)" stroke-width="2" fill-opacity="1" fill="#ffffff"></path><g id="SvgjsG1010"><text id="SvgjsText1011" font-family="微软雅黑" text-anchor="middle" font-size="13px" width="365px" fill="#323232" font-weight="400" align="middle" anchor="middle" family="微软雅黑" size="13px" weight="400" font-style="" opacity="1" y="145.05" transform="rotate(0)"></text></g></g><g id="SvgjsG1012" transform="translate(25.011383056640625,25.005691528320312)"><path id="SvgjsPath1013" d="M 0 0L 170 0L 170 121L 0 121Z" stroke="rgba(50,50,50,1)" stroke-width="2" fill-opacity="1" fill="#ffffff"></path><g id="SvgjsG1014"><text id="SvgjsText1015" font-family="Arial" text-anchor="start" font-size="13px" width="150px" fill="#323232" font-weight="400" align="middle" anchor="start" family="Arial" size="13px" weight="400" font-style="" opacity="1" y="12.05" transform="rotate(0)"><tspan id="SvgjsTspan1016" dy="16" x="10"><tspan id="SvgjsTspan1017" style="text-decoration:;"> </tspan></tspan><tspan id="SvgjsTspan1018" dy="16" x="10"><tspan id="SvgjsTspan1019" style="text-decoration:;">previous_state: 1</tspan></tspan><tspan id="SvgjsTspan1020" dy="16" x="10"><tspan id="SvgjsTspan1021" style="text-decoration:;">next_state: 2</tspan></tspan><tspan id="SvgjsTspan1022" dy="16" x="10"><tspan id="SvgjsTspan1023" style="text-decoration:;">action: 0</tspan></tspan><tspan id="SvgjsTspan1024" dy="16" x="10"><tspan id="SvgjsTspan1025" style="text-decoration:;">reward: 1.5</tspan></tspan><tspan id="SvgjsTspan1026" dy="16" x="10"><tspan id="SvgjsTspan1027" style="text-decoration:;">next_is_terminal: False</tspan></tspan></text></g></g><g id="SvgjsG1028" transform="translate(132.01138305664062,251.0056915283203)"><path id="SvgjsPath1029" d="M 0 15C 0 -5 30 -5 30 15C 30 35 0 35 0 15Z" stroke="rgba(50,50,50,1)" stroke-width="2" fill-opacity="1" fill="#99ccff"></path><g id="SvgjsG1030"><text id="SvgjsText1031" font-family="Arial" text-anchor="middle" font-size="13px" width="10px" fill="#323232" font-weight="700" align="middle" anchor="middle" family="Arial" size="13px" weight="700" font-style="" opacity="1" y="5.55" transform="rotate(0)"><tspan id="SvgjsTspan1032" dy="16" x="15"><tspan id="SvgjsTspan1033" style="text-decoration:;">1</tspan></tspan></text></g></g><g id="SvgjsG1034" transform="translate(195.01138305664062,166.0056915283203)"><path id="SvgjsPath1035" d="M 0 15C 0 -5 30 -5 30 15C 30 35 0 35 0 15Z" stroke="rgba(50,50,50,1)" stroke-width="2" fill-opacity="1" fill="#66cc00"></path><g id="SvgjsG1036"><text id="SvgjsText1037" font-family="Arial" text-anchor="middle" font-size="13px" width="10px" fill="#323232" font-weight="700" align="middle" anchor="middle" family="Arial" size="13px" weight="700" font-style="" opacity="1" y="5.55" transform="rotate(0)"><tspan id="SvgjsTspan1038" dy="16" x="15"><tspan id="SvgjsTspan1039" style="text-decoration:;">2</tspan></tspan></text></g></g><g id="SvgjsG1040" transform="translate(320.0113830566406,326.0056915283203)"><path id="SvgjsPath1041" d="M 0 15C 0 -5 30 -5 30 15C 30 35 0 35 0 15Z" stroke="rgba(50,50,50,1)" stroke-width="2" fill-opacity="1" fill="#ff0000"></path><g id="SvgjsG1042"><text id="SvgjsText1043" font-family="Arial" text-anchor="middle" font-size="13px" width="10px" fill="#323232" font-weight="700" align="middle" anchor="middle" family="Arial" size="13px" weight="700" font-style="" opacity="1" y="5.55" transform="rotate(0)"><tspan id="SvgjsTspan1044" dy="16" x="15"><tspan id="SvgjsTspan1045" style="text-decoration:;">5</tspan></tspan></text></g></g><g id="SvgjsG1046" transform="translate(320.0113830566406,113.00569152832031)"><path id="SvgjsPath1047" d="M 0 15C 0 -5 30 -5 30 15C 30 35 0 35 0 15Z" stroke="rgba(50,50,50,1)" stroke-width="2" fill-opacity="1" fill="#66cc00"></path><g id="SvgjsG1048"><text id="SvgjsText1049" font-family="Arial" text-anchor="middle" font-size="13px" width="10px" fill="#323232" font-weight="700" align="middle" anchor="middle" family="Arial" size="13px" weight="700" font-style="" opacity="1" y="5.55" transform="rotate(0)"><tspan id="SvgjsTspan1050" dy="16" x="15"><tspan id="SvgjsTspan1051" style="text-decoration:;">3</tspan></tspan></text></g></g><g id="SvgjsG1052" transform="translate(320.0113830566406,247.0056915283203)"><path id="SvgjsPath1053" d="M 0 15C 0 -5 30 -5 30 15C 30 35 0 35 0 15Z" stroke="rgba(50,50,50,1)" stroke-width="2" fill-opacity="1" fill="#66cc00"></path><g id="SvgjsG1054"><text id="SvgjsText1055" font-family="Arial" text-anchor="middle" font-size="13px" width="10px" fill="#323232" font-weight="700" align="middle" anchor="middle" family="Arial" size="13px" weight="700" font-style="" opacity="1" y="5.55" transform="rotate(0)"><tspan id="SvgjsTspan1056" dy="16" x="15"><tspan id="SvgjsTspan1057" style="text-decoration:;">4</tspan></tspan></text></g></g><g id="SvgjsG1058" transform="translate(434.0113830566406,166.0056915283203)"><path id="SvgjsPath1059" d="M 0 15C 0 -5 30 -5 30 15C 30 35 0 35 0 15Z" stroke="rgba(50,50,50,1)" stroke-width="2" fill-opacity="1" fill="#66cc00"></path><g id="SvgjsG1060"><text id="SvgjsText1061" font-family="Arial" text-anchor="middle" font-size="13px" width="10px" fill="#323232" font-weight="700" align="middle" anchor="middle" family="Arial" size="13px" weight="700" font-style="" opacity="1" y="5.55" transform="rotate(0)"><tspan id="SvgjsTspan1062" dy="16" x="15"><tspan id="SvgjsTspan1063" style="text-decoration:;">6</tspan></tspan></text></g></g><g id="SvgjsG1064" transform="translate(434.0113830566406,247.0056915283203)"><path id="SvgjsPath1065" d="M 0 15C 0 -5 30 -5 30 15C 30 35 0 35 0 15Z" stroke="rgba(50,50,50,1)" stroke-width="2" fill-opacity="1" fill="#66cc00"></path><g id="SvgjsG1066"><text id="SvgjsText1067" font-family="Arial" text-anchor="middle" font-size="13px" width="10px" fill="#323232" font-weight="700" align="middle" anchor="middle" family="Arial" size="13px" weight="700" font-style="" opacity="1" y="5.55" transform="rotate(0)"><tspan id="SvgjsTspan1068" dy="16" x="15"><tspan id="SvgjsTspan1069" style="text-decoration:;">7</tspan></tspan></text></g></g><g id="SvgjsG1070"><path id="SvgjsPath1071" d="M162.01138305664062 266.0056915283203L195.01138305664062 181.0056915283203" stroke="#323232" stroke-width="2" fill="none" marker-end="url(#SvgjsMarker1072)"></path></g><g id="SvgjsG1074"><path id="SvgjsPath1075" d="M225.01138305664062 181.0056915283203L320.0113830566406 128.0056915283203" stroke="#323232" stroke-width="2" fill="none" marker-end="url(#SvgjsMarker1076)"></path></g><g id="SvgjsG1078"><path id="SvgjsPath1079" d="M335.0113830566406 143.0056915283203L335.0113830566406 247.0056915283203" stroke="#323232" stroke-width="2" fill="none" marker-start="url(#SvgjsMarker1080)" marker-end="url(#SvgjsMarker1082)"></path></g><g id="SvgjsG1084"><path id="SvgjsPath1085" d="M350.0113830566406 262.0056915283203L434.0113830566406 181.0056915283203" stroke="#323232" stroke-width="2" fill="none" marker-end="url(#SvgjsMarker1086)"></path></g><g id="SvgjsG1088"><path id="SvgjsPath1089" d="M320.0113830566406 262.0056915283203L210.01138305664062 196.0056915283203" stroke="#323232" stroke-width="2" fill="none" marker-end="url(#SvgjsMarker1090)"></path></g><g id="SvgjsG1092"><path id="SvgjsPath1093" d="M449.0113830566406 196.0056915283203L449.0113830566406 247.0056915283203" stroke="#323232" stroke-width="2" fill="none" marker-end="url(#SvgjsMarker1094)"></path></g><g id="SvgjsG1096"><path id="SvgjsPath1097" d="M434.0113830566406 262.0056915283203L350.0113830566406 262.0056915283203" stroke="#323232" stroke-width="2" fill="none" marker-start="url(#SvgjsMarker1098)" marker-end="url(#SvgjsMarker1100)"></path></g><g id="SvgjsG1102"><path id="SvgjsPath1103" d="M449.0113830566406 166.0056915283203L350.0113830566406 128.0056915283203" stroke="#323232" stroke-width="2" fill="none" marker-end="url(#SvgjsMarker1104)"></path></g><g id="SvgjsG1106"><path id="SvgjsPath1107" d="M116.51138305664062 147.0056915283203L179.01138305664062 221.0056915283203" stroke-dasharray="3,3" stroke="#323232" stroke-width="2" fill="none"></path></g><g id="SvgjsG1108"><path id="SvgjsPath1109" d="M162.01138305664062 266.0056915283203L320.0113830566406 262.0056915283203" stroke="#323232" stroke-width="2" fill="none" marker-end="url(#SvgjsMarker1110)"></path></g><g id="SvgjsG1112"><path id="SvgjsPath1113" d="M335.0113830566406 277.0056915283203L335.0113830566406 326.0056915283203" stroke="#323232" stroke-width="2" fill="none" marker-end="url(#SvgjsMarker1114)"></path></g><g id="SvgjsG1116" transform="translate(25.011383056640625,25.005691528320312)"><path id="SvgjsPath1117" d="M 0 0L 170 0L 170 24L 0 24Z" stroke="rgba(50,50,50,1)" stroke-width="2" fill-opacity="1" fill="#ffffff"></path><g id="SvgjsG1118"><text id="SvgjsText1119" font-family="Arial" text-anchor="middle" font-size="14px" width="150px" fill="#323232" font-weight="700" align="middle" anchor="middle" family="Arial" size="14px" weight="700" font-style="" opacity="1" y="1.4" transform="rotate(0)"><tspan id="SvgjsTspan1120" dy="17" x="85"><tspan id="SvgjsTspan1121" style="text-decoration:;">Transition (1-&gt;2)</tspan></tspan></text></g></g><g id="SvgjsG1122" transform="translate(147.01138305664062,294.0056915283203)"><path id="SvgjsPath1123" d="M 0 0L 189 0L 189 52L 0 52Z" stroke="none" fill="none"></path><g id="SvgjsG1124"><text id="SvgjsText1125" font-family="Arial" text-anchor="middle" font-size="15px" width="189px" fill="#323232" font-weight="400" align="middle" anchor="middle" family="Arial" size="15px" weight="400" font-style="" opacity="1" y="14.75" transform="rotate(0)"><tspan id="SvgjsTspan1126" dy="18" x="94.5"><tspan id="SvgjsTspan1127" style="text-decoration:;">State space</tspan></tspan></text></g></g></svg>